<svg width="201" height="326" viewBox="0 0 201 326" fill="none" xmlns="http://www.w3.org/2000/svg">
<path d="M200.859 124.078C200.961 126.939 199.267 129.561 196.612 130.654L169.926 141.641C167.257 142.74 164.183 142.061 162.23 139.94L82.6566 53.5237C79.4261 50.0154 80.6819 44.3748 85.0984 42.5566L187.188 0.52581C191.62 -1.29908 196.52 1.84201 196.689 6.61749L200.859 124.078Z" fill="white"/>
<path d="M146.651 151.327C148.66 153.373 149.182 156.448 147.958 159.038L135.663 185.068C134.433 187.672 131.702 189.233 128.825 188.976L11.5882 178.512C6.82861 178.088 3.94322 173.076 5.97801 168.768L53.014 69.1869C55.0562 64.8633 60.8008 63.8967 64.1548 67.3124L146.651 151.327Z" fill="white"/>
<path d="M125.051 212.873C127.919 213.037 130.383 214.96 131.23 217.695L139.742 245.186C140.594 247.936 139.63 250.922 137.331 252.663L43.6081 323.613C39.8032 326.493 34.2823 324.726 32.8737 320.176L0.311162 215.009C-1.10264 210.443 2.48962 205.873 7.27781 206.147L125.051 212.873Z" fill="white"/>
</svg>
