<svg width="273" height="273" viewBox="0 0 273 273" fill="none" xmlns="http://www.w3.org/2000/svg">
<rect width="273" height="273" rx="136.5" fill="#EAE1D1"/>
<path d="M182.111 115.369C182.167 116.942 181.238 118.384 179.781 118.985L165.138 125.026C163.673 125.631 161.986 125.257 160.915 124.091L117.252 76.5714C115.479 74.6422 116.168 71.5405 118.591 70.5406L174.61 47.4283C177.042 46.4248 179.73 48.1521 179.823 50.7781L182.111 115.369Z" fill="#181F28"/>
<path d="M152.366 130.352C153.469 131.478 153.755 133.168 153.084 134.593L146.337 148.907C145.662 150.338 144.164 151.197 142.585 151.055L78.2551 145.302C75.6435 145.068 74.0602 142.312 75.1767 139.943L100.986 85.1844C102.107 82.8069 105.259 82.2754 107.099 84.1537L152.366 130.352Z" fill="#181F28"/>
<path d="M140.514 164.196C142.088 164.286 143.44 165.344 143.905 166.848L148.575 181.965C149.043 183.477 148.514 185.119 147.252 186.076L95.825 225.091C93.7372 226.675 90.7078 225.703 89.9348 223.201L72.0672 165.371C71.2914 162.86 73.2626 160.347 75.8899 160.498L140.514 164.196Z" fill="#181F28"/>
</svg>
